# xmcd
#
# Track frame offsets:
#	150
#	15884
#	29478
#	47812
#	68015
#	86104
#	99094
#	114369
#	131631
#	146850
#	162004
#	176474
#	193795
#	207890
#	226175
#	245467
#	260912
#	278087
#	293425
#	306547
#	323667
#
# Disc length: 4550 seconds
#
# Revision: 2
# Processed by: cddbd v1.5.2PL0 Copyright (c) Steve Scherf et al.
# Submitted via: audiograbber 1.83.01
#
DISCID=2411c415
DTITLE=Rod Stewart - The very best of - CD 1
DYEAR=1900
DGENRE=
TTITLE0=Embra a ceabke you
TTITLE1=For sentimental
TTITLE2=Blue moon
TTITLE3=What a wonderful world
TTITLE4=Stardust
TTITLE5=Manhatten
TTITLE6=It's wonderful
TTITLE7=Isn't it romantic
TTITLE8=I can't get started
TTITLE9=But not for me
TTITLE10=Kiss to bulid a dream on
TTITLE11=Baby it's cold outside
TTITLE12=Night and day
TTITLE13=A nightingale sang in berkeley square
TTITLE14=You go to my head
TTITLE15=They can't take that away
TTITLE16=The way you look
TTITLE17=It had to be you
TTITLE18=That old feeling
TTITLE19=These foolish heart
TTITLE20=We'll be together again
EXTD=
EXTT0=
EXTT1=
EXTT2=
EXTT3=
EXTT4=
EXTT5=
EXTT6=
EXTT7=
EXTT8=
EXTT9=
EXTT10=
EXTT11=
EXTT12=
EXTT13=
EXTT14=
EXTT15=
EXTT16=
EXTT17=
EXTT18=
EXTT19=
EXTT20=
PLAYORDER=
